<?xml version="1.0" standalone="no"?>
<!DOCTYPE svg PUBLIC "-//W3C//DTD SVG 20010904//EN"
 "http://www.w3.org/TR/2001/REC-SVG-20010904/DTD/svg10.dtd">
<svg version="1.0" xmlns="http://www.w3.org/2000/svg"
 width="512.000000pt" height="512.000000pt" viewBox="0 0 512.000000 512.000000"
 preserveAspectRatio="xMidYMid meet">
<metadata>
Created by potrace 1.14, written by Peter Selinger 2001-2017
</metadata>
<g transform="translate(0.000000,512.000000) scale(0.100000,-0.100000)"
fill="#000000" stroke="none">
<path d="M2349 4549 c-382 -40 -769 -204 -1064 -451 -149 -125 -278 -265 -370
-403 -22 -33 -43 -61 -47 -63 -5 -2 -8 -8 -8 -13 0 -5 -12 -28 -26 -50 -122
-194 -231 -520 -261 -779 -10 -84 -10 -366 0 -452 89 -817 688 -1509 1485
-1713 53 -13 114 -27 136 -31 21 -3 48 -8 60 -10 126 -26 462 -25 626 2 825
135 1497 789 1644 1599 3 17 8 41 11 55 13 61 20 176 20 315 0 195 -6 252 -49
470 -19 97 -96 307 -157 427 -67 133 -196 329 -269 409 -211 229 -390 368
-629 487 -179 91 -415 167 -581 188 -30 3 -66 9 -80 11 -49 8 -366 10 -441 2z"/>
</g>
</svg>
